<?xml version="1.0" standalone="no"?>
<!DOCTYPE svg PUBLIC "-//W3C//DTD SVG 20010904//EN"
 "http://www.w3.org/TR/2001/REC-SVG-20010904/DTD/svg10.dtd">
<svg version="1.0" xmlns="http://www.w3.org/2000/svg"
 width="1080.000000pt" height="1080.000000pt" viewBox="0 0 1080.000000 1080.000000"
 preserveAspectRatio="xMidYMid meet">
<metadata>
Created by potrace 1.16, written by Peter Selinger 2001-2019
</metadata>
<g transform="translate(0.000000,1080.000000) scale(0.100000,-0.100000)"
fill="#000000" stroke="none">
<path d="M7214 9222 c-18 -12 -55 -102 -76 -187 -15 -63 -19 -107 -16 -206 2
-94 -1 -131 -11 -142 -10 -12 -11 -32 -5 -79 4 -35 8 -121 8 -193 1 -71 5
-137 9 -146 24 -48 -248 -159 -523 -214 -197 -39 -193 -37 -280 -211 -78 -158
-155 -273 -285 -424 -122 -141 -273 -338 -300 -390 -16 -31 -17 -52 -12 -185
9 -218 33 -291 143 -432 48 -61 89 -132 81 -140 -10 -9 -198 47 -261 77 -76
37 -176 133 -214 206 -24 45 -129 472 -158 639 -10 58 -25 80 -18 25 10 -75
64 -338 90 -445 55 -220 59 -228 140 -320 84 -93 123 -120 236 -160 l77 -27
-55 -85 c-30 -47 -80 -116 -110 -153 -30 -37 -54 -73 -53 -81 0 -8 27 -31 60
-53 33 -21 59 -40 57 -41 -7 -7 -284 50 -353 72 -42 13 -72 37 -181 145 l-131
129 75 112 c97 146 116 186 137 280 18 79 17 123 -4 242 -5 33 -15 121 -21
195 -18 228 -22 264 -30 300 -6 24 -7 11 -4 -40 11 -154 44 -482 50 -491 3 -6
6 -45 6 -87 -2 -125 -26 -190 -137 -361 -54 -83 -102 -154 -107 -157 -5 -3
-57 -6 -116 -6 -77 0 -102 -2 -88 -10 10 -5 57 -8 106 -6 l88 3 7 -30 c13 -59
8 -106 -15 -131 l-23 -23 -19 39 c-21 42 -96 116 -106 105 -4 -4 1 -11 10 -16
25 -14 88 -104 88 -126 0 -11 -13 -29 -30 -41 -19 -15 -30 -31 -30 -47 0 -15
-6 -25 -14 -25 -17 0 -65 37 -91 70 -10 14 -39 45 -62 69 -41 42 -44 49 -51
115 -7 67 -8 71 -37 79 -16 5 -37 13 -47 18 -9 4 -53 9 -98 10 -64 2 -83 6
-87 18 -3 9 -16 43 -29 75 -23 59 -23 59 -3 84 10 14 19 31 19 38 0 9 11 14
31 14 17 0 28 4 24 10 -3 6 -17 10 -31 10 -13 0 -24 5 -24 10 0 6 12 10 26 10
14 0 23 4 19 10 -3 6 -17 10 -30 10 -19 0 -28 10 -45 47 -24 55 -37 53 -14 -2
15 -36 15 -40 -2 -52 -10 -7 -21 -13 -26 -13 -4 0 -8 -4 -8 -10 0 -6 10 -5 25
2 19 9 28 9 37 0 8 -8 7 -13 -8 -18 -10 -3 -28 -10 -39 -15 -16 -7 -13 -8 13
-4 64 9 31 -48 -51 -86 -56 -26 -41 -31 22 -7 30 11 47 -9 27 -32 -8 -8 -17
-32 -20 -54 l-7 -38 -62 6 c-34 4 -112 16 -173 28 -94 18 -111 24 -107 38 4
15 19 18 105 18 55 0 102 3 106 6 3 3 -34 6 -81 6 -95 0 -160 19 -178 52 -6
11 -9 21 -7 22 2 2 12 8 23 14 19 11 19 11 -2 12 -35 0 -27 18 10 23 l32 3
-33 9 -34 8 5 56 6 56 -13 -51 c-16 -62 -23 -74 -41 -74 -8 0 -17 -5 -20 -10
-4 -7 2 -9 19 -4 31 7 35 -10 9 -39 -14 -15 -15 -18 -3 -16 8 2 31 -13 51 -32
29 -28 34 -39 28 -57 -11 -30 -52 -29 -113 2 -26 13 -45 19 -43 12 6 -21 78
-48 140 -53 34 -2 98 -10 142 -18 117 -21 137 -23 275 -30 69 -3 149 -8 179
-11 49 -5 51 -7 33 -20 -11 -7 -25 -28 -31 -46 l-11 -33 34 38 c25 27 43 37
65 37 32 0 31 7 33 -137 0 -40 12 -57 20 -32 4 11 46 -33 102 -106 29 -38 89
-71 107 -59 6 3 17 22 25 40 8 19 20 34 28 34 7 0 19 7 26 15 7 8 16 15 20 15
4 0 15 -41 25 -91 26 -145 73 -294 137 -439 33 -74 87 -214 120 -310 33 -96
72 -200 88 -230 16 -30 63 -143 105 -250 42 -107 81 -199 87 -205 7 -7 8 -2 3
15 -13 44 -154 403 -181 460 -15 30 -51 126 -80 212 -29 86 -71 192 -92 235
-39 77 -82 201 -141 403 -38 132 -48 205 -31 225 21 26 30 87 18 133 -6 23 -8
46 -4 49 4 4 64 -50 134 -120 108 -108 136 -130 178 -143 57 -18 312 -79 367
-88 34 -6 37 -9 37 -41 0 -19 5 -35 11 -35 47 0 194 46 228 71 43 30 101 103
101 125 0 7 8 15 18 17 22 6 101 1 109 -7 4 -3 17 -6 31 -6 18 0 23 -4 18 -17
-4 -9 -11 -49 -17 -89 -5 -39 -19 -103 -30 -140 -12 -42 -24 -127 -29 -214 -6
-80 -15 -169 -20 -199 -13 -70 -13 -102 -1 -81 17 28 35 153 47 325 3 50 15
117 25 150 19 62 36 161 41 229 2 39 26 60 56 49 13 -5 143 118 174 166 10 14
18 35 17 46 0 19 -1 19 -16 -2 -15 -22 -16 -22 -32 -4 -20 24 -190 116 -198
108 -3 -4 -5 -19 -5 -34 0 -15 -8 -33 -18 -40 -13 -9 -17 -25 -16 -59 1 -30
-3 -48 -11 -51 -16 -6 -17 -67 -2 -95 15 -28 5 -33 -26 -12 -37 24 -55 65 -55
124 0 36 -3 49 -11 44 -8 -5 -10 -28 -6 -72 6 -64 6 -65 -14 -46 -31 28 -62
83 -69 127 -7 37 -5 43 31 82 40 44 116 86 179 100 19 4 71 7 114 7 63 -1 77
1 67 11 -21 21 -177 14 -241 -11 -70 -28 -147 -85 -168 -124 -10 -17 -32 -49
-51 -72 -59 -72 -118 -219 -116 -291 0 -16 8 -21 36 -23 27 -2 47 5 85 30 27
18 50 41 52 52 3 14 -8 10 -54 -23 -92 -66 -123 -52 -90 39 10 25 19 34 32 32
11 -1 49 -5 87 -9 37 -3 67 -9 67 -12 0 -4 -14 -26 -30 -48 -47 -64 -107 -98
-195 -112 -42 -7 -79 -11 -81 -8 -2 2 -2 12 2 21 4 11 18 16 45 16 53 0 49 13
-8 28 -40 11 -193 98 -193 109 0 3 26 33 57 68 32 35 80 101 109 147 57 92 53
90 162 74 34 -5 52 -4 52 2 0 6 -9 13 -20 17 -11 3 -28 25 -38 48 -11 23 -42
71 -71 106 -62 77 -121 172 -126 203 -12 69 -25 228 -25 297 0 78 1 81 46 146
66 98 134 184 260 330 145 169 207 262 293 438 81 166 77 162 236 192 44 8
123 27 174 42 67 18 96 23 99 15 2 -7 10 -12 18 -12 8 0 32 -16 54 -36 32 -29
45 -35 65 -30 24 6 25 5 14 -16 -6 -13 -31 -51 -55 -86 l-44 -63 31 -54 c28
-51 44 -102 134 -450 18 -72 39 -184 45 -250 14 -144 27 -203 87 -400 34 -109
46 -167 47 -213 0 -44 3 -59 10 -52 23 23 8 143 -37 296 -54 181 -63 222 -82
389 -8 72 -26 173 -40 225 -14 52 -44 165 -66 250 -22 87 -53 177 -69 206
l-28 50 44 69 c38 59 70 133 61 142 -2 1 -19 -3 -39 -9 -33 -10 -39 -9 -68 16
-17 14 -36 26 -41 26 -24 0 5 19 61 39 33 12 90 43 127 67 36 25 68 42 72 37
3 -4 17 -20 31 -36 22 -25 24 -35 22 -110 -2 -45 7 -142 18 -217 12 -74 23
-202 26 -285 3 -82 14 -211 24 -285 10 -74 22 -166 25 -204 8 -76 8 -443 1
-454 -2 -4 -7 -77 -10 -162 -18 -426 -92 -757 -244 -1098 -160 -357 -256 -405
-548 -276 -33 14 -108 39 -169 54 -60 16 -118 31 -127 35 -11 4 -18 3 -18 -4
0 -15 72 -47 126 -56 l41 -6 1 -147 c2 -413 2 -598 -2 -810 l-4 -234 -70 -146
c-80 -167 -87 -186 -107 -302 -8 -46 -36 -138 -62 -203 l-48 -118 -12 48 c-7
26 -25 113 -39 193 -13 80 -40 192 -59 250 -46 137 -337 731 -352 716 -3 -2
43 -103 102 -223 231 -471 263 -552 295 -768 34 -227 96 -419 170 -530 67
-100 100 -169 165 -350 32 -88 72 -190 91 -227 28 -55 36 -86 48 -195 24 -201
70 -324 202 -533 88 -139 121 -199 150 -276 28 -76 33 -129 14 -175 -11 -26
-16 -29 -42 -24 -22 5 -35 1 -58 -19 -17 -14 -37 -23 -45 -20 -8 4 -15 2 -15
-4 0 -29 52 -21 80 12 7 9 27 16 45 16 86 0 95 120 20 278 -19 40 -75 135
-123 210 -124 191 -150 244 -176 367 -12 58 -12 61 9 77 40 30 56 82 61 196 3
59 12 136 20 172 9 36 78 223 154 415 257 651 338 859 436 1130 64 173 100
260 102 245 2 -14 19 -63 37 -110 18 -47 40 -131 49 -189 19 -122 37 -163 84
-199 20 -15 51 -41 69 -59 l33 -31 -35 -39 c-48 -52 -65 -92 -64 -150 l1 -48
13 50 c16 69 40 112 91 167 48 52 62 89 45 121 l-11 22 6 -22 c3 -12 -2 -38
-11 -57 l-17 -35 -32 32 c-18 18 -51 47 -74 65 -45 36 -47 41 -80 213 -12 66
-34 138 -57 189 -31 69 -36 90 -32 129 5 39 99 327 112 339 3 3 10 0 17 -6 7
-6 44 -18 82 -26 90 -21 183 -71 285 -152 45 -37 84 -64 87 -61 7 7 -102 102
-166 145 -67 45 -155 81 -222 91 -67 11 -82 27 -67 72 17 51 27 59 107 96 39
18 72 36 72 39 0 12 -57 -8 -102 -36 -27 -16 -48 -26 -48 -22 0 4 14 43 30 86
17 44 29 84 27 90 -6 17 -62 -128 -202 -519 -242 -676 -427 -1163 -660 -1729
-76 -185 -96 -266 -100 -403 -4 -112 -15 -154 -48 -182 -9 -6 -17 -8 -20 -4
-5 9 -16 83 -22 153 -2 27 -24 87 -53 150 -28 58 -74 170 -102 250 -59 163
-87 224 -136 292 -43 60 -66 108 -93 188 -25 76 -20 100 44 254 20 49 44 125
52 170 23 124 57 214 160 419 52 104 93 193 91 198 -2 5 -19 -19 -38 -54 l-35
-65 4 282 c5 332 5 476 0 688 -2 98 1 162 7 168 7 7 46 -5 121 -35 62 -24 131
-47 155 -51 24 -3 53 -7 66 -9 37 -6 118 20 157 49 20 15 52 51 71 80 l35 53
102 1 c61 1 143 9 202 22 190 39 427 56 716 51 l47 -1 16 -72 c9 -39 23 -79
31 -88 23 -25 52 -222 69 -465 28 -394 29 -402 78 -640 21 -98 32 -181 32
-240 1 -84 -1 -94 -31 -146 -50 -87 -63 -129 -228 -757 -80 -306 -95 -381 -95
-477 0 -100 -18 -175 -44 -185 -47 -17 -161 10 -295 70 -47 21 -106 44 -130
50 l-44 12 6 66 c4 37 16 108 27 157 24 105 44 498 29 577 -6 35 -5 58 6 89 8
23 15 56 14 73 l-1 31 -8 -30 c-5 -16 -16 -50 -25 -75 -14 -38 -15 -54 -5
-103 19 -100 4 -395 -31 -570 -16 -82 -29 -159 -29 -171 0 -12 -6 -30 -14 -41
-7 -11 -17 -40 -21 -64 -4 -24 -13 -58 -20 -74 -15 -37 -9 -64 16 -72 22 -7
23 -14 7 -66 -11 -38 -12 -39 -48 -33 -26 4 -40 2 -46 -7 -13 -22 -50 -133
-48 -146 1 -7 2 -17 3 -23 2 -19 21 -10 21 10 0 11 10 49 22 85 18 56 24 66
42 63 15 -2 20 -9 18 -23 -15 -87 -15 -93 12 -110 34 -23 85 -15 145 23 37 23
55 27 96 25 41 -2 47 -1 34 10 -11 9 -13 21 -8 45 11 53 19 57 95 44 36 -6 68
-13 70 -15 3 -2 0 -24 -5 -48 -5 -23 -7 -47 -5 -51 11 -17 22 3 28 52 l7 50
39 0 c36 0 41 4 66 46 28 48 45 144 26 144 -8 0 -6 13 3 40 8 22 17 91 20 153
8 137 14 164 149 677 88 333 116 424 157 510 45 98 49 112 49 180 -1 41 -7
109 -15 150 -8 41 -25 134 -39 205 -22 119 -35 229 -51 435 -15 204 -28 315
-45 417 -25 138 -25 133 3 133 24 0 110 39 141 64 19 15 18 19 -28 116 -47 99
-97 268 -95 319 1 17 4 11 10 -19 8 -42 42 -91 54 -78 3 3 -1 18 -10 34 -8 16
-20 48 -25 72 -6 24 -18 46 -26 49 -7 3 -14 18 -14 33 0 38 70 110 107 110 19
0 40 14 73 50 39 42 52 50 81 50 l34 -1 -24 -17 c-40 -29 -81 -70 -81 -81 0
-6 29 11 64 38 55 43 66 48 76 36 10 -11 10 -18 1 -29 -9 -11 -8 -17 3 -29 9
-8 12 -23 9 -36 -4 -18 0 -22 28 -28 19 -4 38 -6 43 -5 9 3 0 -201 -13 -273
-6 -39 -7 -40 -46 -39 -76 2 -211 21 -234 33 -30 16 -36 9 -11 -14 13 -11 46
-20 97 -26 43 -4 95 -13 117 -19 45 -14 82 -7 94 18 5 9 12 82 16 162 5 123 9
147 25 160 23 19 61 83 61 103 0 8 7 18 16 21 10 4 14 16 12 35 -2 23 7 39 43
78 26 27 49 59 53 70 8 25 115 120 194 172 74 50 157 140 233 256 50 75 59 94
53 120 -10 50 -51 112 -103 156 l-50 41 57 73 c31 40 76 84 100 99 40 24 51
47 34 72 -21 32 -85 37 -128 9 -21 -14 -22 -13 -22 21 0 20 -8 44 -18 55 -16
18 -17 21 -1 55 9 19 17 41 17 49 0 13 -43 28 -90 30 -14 0 -45 11 -70 23 -25
12 -60 22 -78 22 -25 0 -40 8 -59 31 -37 43 -64 36 -80 -21 -10 -35 -20 -48
-46 -60 -17 -8 -41 -29 -53 -47 l-21 -31 -22 53 c-43 103 -105 136 -140 73
-15 -25 -14 -31 16 -90 18 -35 37 -92 43 -128 6 -36 14 -76 17 -89 5 -21 3
-23 -23 -17 -16 3 -48 8 -71 11 -41 5 -44 3 -68 -33 -31 -48 -61 -130 -77
-216 -7 -36 -16 -66 -21 -66 -8 0 -47 84 -47 103 0 6 -8 20 -19 31 -10 12 -24
44 -31 71 -16 64 -22 298 -9 390 5 39 16 118 24 177 19 133 19 268 2 311 -23
55 -163 177 -253 220 -45 22 -100 59 -129 87 -27 26 -64 55 -82 64 -30 15 -31
18 -22 50 5 19 25 58 44 86 19 28 44 78 56 110 17 48 26 60 44 60 30 0 59 35
84 103 28 76 27 112 -4 143 -23 23 -24 28 -14 77 14 78 6 266 -12 277 -7 5
-22 31 -31 57 -13 34 -17 40 -14 18 7 -51 30 -135 38 -135 12 0 9 -186 -3
-235 -12 -47 -49 -94 -49 -62 0 20 -16 23 -23 5 -2 -7 -12 22 -22 65 -16 71
-34 101 -36 60 -1 -23 -2 -17 -29 100 -13 53 -28 97 -34 97 -6 0 -17 9 -24 20
-14 24 -32 26 -32 5 0 -23 -16 -18 -39 13 -16 21 -20 23 -21 9 0 -15 -8 -18
-48 -16 -27 1 -53 -1 -59 -4 -6 -4 -22 2 -36 13 -31 24 -47 25 -47 3 0 -14 -2
-14 -20 2 -32 29 -23 2 10 -30 29 -28 30 -28 30 -6 0 15 4 20 13 14 6 -4 35
-9 62 -9 52 -2 183 -25 201 -37 6 -3 19 -41 28 -84 23 -101 39 -146 51 -144 6
1 14 -13 18 -31 4 -18 11 -43 14 -55 4 -19 -2 -24 -52 -39 l-57 -18 -20 24
c-18 23 -29 25 -122 30 -66 4 -95 9 -83 14 16 8 127 4 166 -6 7 -2 15 2 18 9
6 16 -100 37 -150 29 -55 -9 -84 -25 -66 -37 11 -7 10 -9 -4 -9 -10 0 -20 -7
-23 -15 -8 -20 -94 -21 -94 -1 0 26 -30 38 -130 49 l-100 11 3 41 c1 22 5 45
9 50 3 6 16 44 28 85 12 41 29 88 37 103 8 16 12 31 9 34 -9 9 -45 -73 -62
-141 -9 -36 -21 -63 -26 -60 -11 7 -2 159 12 189 5 11 11 37 15 57 3 21 11 37
18 35 6 -1 13 9 15 23 2 14 10 40 18 58 17 36 16 56 -2 44z m126 -562 c14 -8
20 -21 20 -46 0 -48 -15 -73 -53 -88 -40 -16 -137 -10 -157 10 -8 7 -17 41
-20 74 -5 48 -3 60 10 64 28 7 179 -3 200 -14z m349 -26 c21 -5 23 -8 17 -47
-11 -65 -30 -87 -76 -88 -99 -3 -108 -2 -125 24 -8 13 -18 44 -21 69 l-7 47
34 3 c38 5 141 0 178 -8z m201 -41 c-1 -51 -44 -207 -75 -270 -39 -78 -79
-119 -207 -209 -161 -114 -247 -105 -369 40 -89 105 -100 131 -106 253 l-5
103 27 -10 c41 -16 147 -12 173 6 27 19 27 14 2 -36 -22 -43 -26 -75 -10 -85
6 -4 10 6 10 22 0 16 7 39 16 52 9 13 18 43 20 68 5 58 9 63 53 63 36 0 38 -2
52 -47 17 -59 42 -73 127 -73 57 0 67 3 93 29 16 16 29 36 29 44 0 10 26 24
73 40 88 31 97 32 97 10z m-158 -488 c-8 -73 -8 -116 -1 -175 4 -35 4 -35 -41
-41 -79 -11 -143 -3 -228 30 -92 36 -155 80 -189 130 -31 46 -29 60 5 29 44
-41 90 -60 151 -60 72 -1 122 21 226 100 44 33 81 60 82 58 1 -1 -1 -33 -5
-71z m-446 -111 c39 -39 122 -83 212 -113 84 -29 184 -27 278 3 19 6 22 2 27
-36 4 -24 26 -108 51 -188 57 -187 64 -236 81 -575 3 -55 7 -138 10 -185 12
-219 19 -377 17 -400 -1 -14 -4 -115 -6 -225 -3 -110 -8 -240 -11 -290 -12
-151 -13 -317 -4 -378 5 -32 21 -80 34 -107 20 -40 65 -178 65 -201 0 -3 -96
-9 -212 -12 -117 -3 -229 -9 -248 -12 -205 -33 -464 -65 -532 -65 -51 0 -59
10 -34 45 18 26 98 211 130 300 95 267 152 567 155 825 1 63 6 142 12 175 13
72 17 488 6 598 -4 43 -14 115 -22 160 -8 45 -17 150 -20 232 -3 83 -12 191
-20 240 -20 126 -35 253 -34 295 l1 35 15 -43 c8 -24 31 -59 49 -78z m548 57
c40 -38 91 -72 138 -93 94 -44 218 -150 248 -214 21 -42 22 -56 17 -143 -3
-53 -16 -163 -27 -246 -25 -176 -26 -459 -1 -488 15 -19 8 -47 -12 -47 -7 0
-24 -12 -38 -27 l-24 -26 38 22 c40 24 64 22 74 -6 18 -52 47 -110 65 -129 16
-18 18 -30 12 -71 -6 -47 -8 -50 -32 -45 -26 5 -92 -24 -92 -40 0 -6 3 -8 8
-6 4 2 23 12 44 22 58 30 65 21 56 -70 -10 -103 7 -259 38 -353 19 -56 22 -76
13 -87 -6 -8 -9 -30 -7 -50 4 -35 4 -36 -26 -30 -39 8 -63 31 -91 86 -13 25
-33 54 -45 65 -49 45 -53 65 -55 300 -1 168 -5 235 -18 285 -12 49 -16 118
-18 283 -1 120 -4 215 -7 212 -8 -8 -9 -33 -12 -260 -2 -153 1 -206 16 -270
15 -68 17 -123 16 -375 -1 -162 2 -333 8 -380 5 -47 12 -116 15 -155 17 -205
47 -330 111 -457 19 -37 34 -72 34 -77 0 -11 -90 -55 -131 -65 -16 -3 -31 -1
-37 7 -5 6 -26 83 -46 169 -24 105 -46 178 -68 220 l-33 63 1 185 c0 102 2
376 5 610 3 365 -2 634 -16 770 -2 19 -7 87 -10 150 -8 143 -24 227 -74 400
-22 74 -42 160 -46 190 -10 83 -32 154 -55 175 -21 19 -27 55 -10 55 6 0 39
-27 74 -59z m1018 -723 c7 -13 11 -26 10 -30 -1 -5 8 -8 21 -8 16 0 18 -3 9
-9 -21 -13 -10 -46 16 -49 25 -4 31 25 10 47 -18 18 35 5 87 -21 22 -12 59
-22 83 -23 57 -2 68 -15 47 -55 -15 -28 -19 -31 -48 -25 -18 4 -39 13 -48 21
-8 8 -22 14 -30 14 -10 1 -9 3 4 11 21 13 22 35 1 43 -24 9 -36 -3 -31 -30 2
-13 -1 -28 -8 -34 -18 -15 -81 14 -88 40 -3 13 -12 21 -24 19 -25 -3 -75 19
-69 30 3 5 15 7 26 4 13 -3 22 1 26 12 7 17 -13 38 -27 29 -4 -2 -5 5 -2 16 7
26 19 25 35 -2z m-212 -126 c65 -153 87 -197 115 -224 26 -27 45 -35 45 -22 0
4 -14 22 -31 42 -18 20 -43 60 -56 89 -21 46 -23 58 -13 88 14 44 56 78 84 69
27 -8 111 -63 111 -72 0 -4 4 -12 8 -19 12 -19 -4 -45 -24 -40 -24 6 -25 -12
-1 -19 9 -3 27 -11 40 -17 16 -8 25 -8 34 1 9 9 7 12 -10 12 -17 0 -22 6 -22
24 0 31 9 36 67 40 61 4 72 -1 66 -25 -4 -14 0 -19 17 -19 16 0 20 4 16 15 -8
22 20 19 44 -5 29 -29 30 -92 2 -123 -9 -10 -45 -34 -80 -54 -35 -19 -61 -38
-58 -40 9 -9 117 48 155 82 56 49 83 65 111 65 30 0 50 -17 50 -42 0 -24 -21
-23 -27 1 -3 11 -14 22 -26 25 -29 7 -34 -1 -11 -19 18 -15 18 -15 -8 -9 -24
5 -28 3 -28 -16 0 -19 4 -22 29 -18 l30 4 -34 -35 c-19 -20 -58 -62 -87 -94
-29 -32 -65 -66 -80 -75 -30 -18 -38 -35 -12 -25 15 6 16 -2 11 -68 -4 -41 -7
-89 -7 -106 0 -20 -5 -33 -13 -33 -7 0 -46 -16 -86 -35 -41 -20 -76 -34 -78
-31 -2 2 15 18 38 37 94 74 121 151 81 228 -25 51 -64 75 -119 76 -35 0 -53 6
-70 23 -12 12 -30 23 -40 23 -56 4 -71 4 -95 -4 -36 -11 -78 -95 -77 -151 1
-40 2 -40 10 12 11 64 32 108 61 123 33 18 109 5 133 -23 16 -19 30 -23 72
-23 43 0 56 -5 82 -29 34 -33 56 -86 47 -119 -10 -42 -64 -102 -134 -150 -75
-51 -119 -60 -210 -43 -49 9 -60 26 -111 169 l-31 88 56 97 c41 71 54 103 50
122 -3 14 -14 69 -25 124 -12 57 -31 117 -46 143 -23 39 -24 44 -9 41 11 -2
20 4 22 15 4 20 -18 23 -36 5 -9 -9 -12 -8 -12 5 0 9 3 16 8 16 24 -4 42 3 42
18 0 34 37 -16 70 -95z m-92 -248 c15 -3 37 -12 49 -19 21 -14 21 -14 -30
-100 -57 -98 -58 -97 -82 15 -22 105 -21 122 10 115 14 -3 37 -8 53 -11z m-58
-238 c28 -102 87 -239 133 -308 53 -80 135 -235 147 -277 17 -61 11 -83 -30
-129 -42 -46 -61 -54 -179 -71 -62 -10 -65 -9 -106 20 -39 28 -46 40 -80 142
-37 110 -38 115 -39 267 -1 217 30 412 87 545 l21 49 12 -78 c7 -43 22 -115
34 -160z m715 -28 c35 -41 58 -89 48 -97 -4 -4 -39 -14 -78 -21 -38 -7 -76
-15 -84 -18 -9 -4 -12 1 -8 14 4 10 7 60 8 109 1 50 4 93 6 98 6 10 74 -44
108 -85z m45 -136 c0 -11 -137 -192 -178 -235 -21 -21 -71 -63 -113 -92 -42
-29 -95 -75 -117 -102 -37 -43 -42 -45 -42 -24 0 39 -77 201 -125 266 l-45 60
122 5 c116 6 128 8 203 44 44 20 123 48 175 61 108 26 120 28 120 17z m-3148
-505 c11 -16 35 -35 52 -43 l31 -13 -47 -2 c-121 -4 -169 -1 -186 9 -18 12 -1
54 50 121 l41 54 19 -48 c10 -27 28 -61 40 -78z m2105 -42 c8 -16 19 -32 22
-35 4 -3 14 -17 24 -32 11 -18 29 -29 52 -34 19 -3 35 -12 35 -19 0 -16 -75
-85 -93 -85 -6 0 -28 -13 -47 -30 -19 -16 -36 -28 -38 -26 -7 8 -21 132 -27
245 l-7 116 31 -35 c17 -19 39 -48 48 -65z m-794 -3701 c3 -4 34 -17 69 -29
35 -12 99 -39 143 -58 85 -38 207 -62 259 -51 28 6 29 5 24 -27 -3 -19 -19
-54 -34 -78 l-29 -43 -60 6 c-91 10 -423 94 -444 112 -2 2 6 37 19 76 13 40
24 79 26 86 4 13 17 16 27 6z m95 -245 l83 -22 -6 -31 c-4 -17 -8 -38 -11 -46
-2 -8 -45 -32 -96 -54 -73 -30 -97 -37 -117 -30 -36 13 -38 47 -8 103 14 25
28 61 32 79 5 25 11 33 23 29 10 -3 54 -15 100 -28z"/>
<path d="M4705 8832 c-156 -54 -265 -176 -296 -333 l-11 -57 -35 24 c-79 53
-143 42 -248 -43 -326 -266 -429 -309 -795 -328 -278 -15 -362 -24 -465 -50
-88 -22 -215 -88 -275 -142 -57 -51 -120 -141 -120 -170 0 -10 11 1 26 27 43
75 91 126 163 174 136 91 271 125 556 141 236 13 274 16 345 26 183 26 304 86
505 246 144 116 172 133 208 133 32 0 83 -20 112 -45 11 -9 15 -14 8 -11 -6 4
-18 -1 -25 -9 -7 -9 -21 -24 -30 -33 -34 -31 -17 -82 27 -82 19 0 19 1 -4 19
l-24 18 24 32 c26 35 54 41 62 11 6 -22 -8 -37 -18 -20 -8 13 -35 13 -35 0 0
-5 7 -10 16 -10 12 0 15 -5 9 -22 -27 -81 -13 -183 30 -216 14 -11 25 -24 25
-29 0 -5 5 -14 10 -19 6 -6 12 -46 14 -90 2 -59 9 -90 26 -124 18 -35 25 -66
28 -138 5 -99 -9 -155 -50 -207 -18 -23 -96 -71 -102 -63 -1 2 -12 38 -25 81
-23 82 -68 193 -75 186 -3 -2 11 -55 30 -118 19 -62 36 -125 38 -140 2 -14 6
-33 9 -41 4 -8 14 -55 22 -105 27 -146 53 -239 105 -368 50 -127 67 -196 99
-432 19 -134 40 -223 60 -255 20 -31 19 -2 -4 87 -13 51 -31 143 -40 205 -30
222 -44 280 -94 407 l-22 53 53 -5 c29 -3 70 -11 91 -17 22 -6 41 -9 44 -6 9
9 -42 25 -123 38 l-76 13 -20 50 c-11 28 -28 104 -38 170 -11 66 -22 132 -25
146 -5 23 -2 28 22 36 42 15 91 60 116 107 19 34 22 57 22 142 l0 102 48 -42
c118 -99 150 -119 217 -130 27 -4 27 -5 9 -79 -12 -53 -4 -137 13 -137 6 0 8
13 6 29 -4 27 0 31 45 52 27 13 61 38 77 56 l29 32 38 -47 c21 -26 45 -55 52
-64 8 -11 15 -58 17 -130 3 -62 11 -159 19 -216 21 -143 25 -132 -47 -133 -53
0 -59 -2 -38 -10 14 -6 44 -10 68 -11 l42 0 1 -51 c5 -191 -3 -231 -72 -344
-55 -92 -123 -177 -212 -270 -69 -71 -82 -81 -99 -72 -11 6 -27 8 -35 5 -11
-5 -1 -14 33 -32 63 -34 107 -47 101 -31 -2 6 -18 16 -35 21 l-32 9 79 83
c153 161 255 316 286 434 21 78 19 159 -9 360 -14 96 -27 214 -31 261 -8 118
-16 142 -74 205 -28 31 -51 65 -51 77 0 12 -3 32 -6 45 -8 28 16 30 40 4 16
-18 171 -99 271 -143 l50 -21 -65 -14 c-84 -18 -90 -20 -90 -39 0 -19 16 -20
23 -1 3 8 35 19 76 27 39 7 71 17 70 23 0 6 -57 38 -126 71 -69 33 -133 65
-141 71 -12 9 -13 25 -8 87 6 63 13 83 37 113 16 21 39 42 51 48 59 30 108
153 107 269 l-1 82 -13 -65 c-7 -36 -20 -83 -29 -103 l-15 -38 -51 7 c-34 4
-50 3 -50 -5 0 -10 20 -17 68 -23 21 -3 19 -7 -32 -85 -59 -87 -192 -236 -238
-267 -38 -24 -113 -24 -169 2 -54 24 -177 128 -212 179 -42 62 -62 199 -35
242 17 28 3 54 -27 48 -36 -6 -62 31 -70 98 -9 68 8 109 48 113 39 5 70 -19
95 -70 18 -37 21 -39 22 -18 0 14 -6 35 -14 46 -14 20 -13 20 44 16 65 -5 179
28 258 73 l44 25 -26 -44 c-14 -24 -33 -70 -41 -103 -21 -76 -32 -283 -16
-283 6 0 11 14 11 30 0 23 4 30 20 30 12 0 20 -7 21 -17 0 -15 2 -15 9 2 l9
20 1 -20 c3 -24 1 -49 -5 -95 -5 -33 -5 -34 10 -16 9 12 15 40 15 68 0 41 3
48 19 48 19 0 19 -2 5 -52 -15 -51 -31 -83 -69 -141 -9 -15 -12 -27 -7 -27 19
0 70 84 92 151 12 35 27 70 33 77 8 10 8 15 -1 21 -6 3 -9 15 -7 26 2 11 4 23
4 28 1 4 18 7 38 7 40 0 35 16 -7 22 -21 2 -26 9 -28 43 -2 22 2 64 8 94 10
45 22 63 76 118 52 52 64 71 64 96 l0 32 -19 -40 c-10 -22 -37 -55 -60 -73
-63 -51 -82 -97 -94 -234 -9 -104 -12 -118 -29 -118 -16 0 -18 9 -18 98 1 69
6 113 20 152 24 71 19 75 -10 8 -17 -39 -24 -79 -28 -150 -3 -54 -8 -98 -13
-98 -8 0 -3 173 7 205 5 16 4 17 -6 8 -7 -7 -15 -50 -18 -104 -3 -64 -10 -98
-20 -109 -14 -13 -15 -6 -9 71 12 152 58 251 157 338 34 29 59 55 56 58 -3 3
-27 -14 -53 -37 -64 -56 -171 -115 -266 -145 -84 -27 -127 -31 -173 -15 -16 5
-48 14 -71 20 -30 8 -43 16 -43 28 0 10 -4 22 -9 28 -12 13 13 123 42 188 58
126 189 220 336 240 61 8 64 16 5 16 -27 -1 -72 -8 -99 -18z"/>
<path d="M5140 8687 c0 -2 21 -26 48 -53 78 -82 138 -229 143 -349 3 -92 -1
-175 -9 -175 -4 0 -6 16 -4 35 5 41 -14 127 -39 175 -10 19 -36 57 -59 84 -22
27 -45 56 -50 65 -4 9 -11 13 -14 10 -4 -3 9 -28 29 -55 95 -133 109 -166 109
-269 0 -88 -23 -158 -80 -241 -26 -38 -38 -64 -31 -64 32 0 125 169 127 230 1
22 2 23 9 6 7 -19 8 -19 16 0 17 41 18 227 1 297 -21 89 -68 185 -118 242 -34
39 -78 74 -78 62z"/>
<path d="M4264 8229 c-16 -17 -74 -69 -130 -114 -187 -155 -269 -263 -282
-370 l-4 -42 -67 -13 c-134 -26 -161 -41 -266 -155 -161 -174 -259 -236 -535
-338 -257 -95 -388 -133 -576 -166 -60 -11 -118 -22 -129 -25 -15 -5 -41 12
-105 69 -94 82 -113 90 -215 83 -63 -4 -67 -6 -108 -50 -23 -25 -53 -49 -67
-53 -14 -4 -36 -16 -49 -26 -16 -13 -40 -19 -77 -19 -29 0 -56 -4 -59 -10 -11
-18 16 -51 46 -57 27 -5 29 -9 24 -34 -14 -62 54 -43 90 25 11 20 24 35 28 33
5 -1 10 -30 12 -62 1 -33 3 -72 4 -87 1 -18 7 -28 16 -28 17 0 55 56 55 83 0
9 2 17 5 17 3 0 40 -20 83 -45 101 -58 182 -79 279 -71 45 4 78 2 86 -4 7 -6
58 -33 115 -60 109 -53 181 -75 275 -84 36 -4 68 -14 84 -26 31 -24 58 -27 49
-4 -10 26 1 32 43 24 54 -10 90 8 169 81 86 81 167 132 345 220 143 71 146 72
171 55 14 -9 37 -38 50 -64 26 -50 36 -34 12 21 -38 91 -85 91 -260 3 -138
-70 -215 -122 -336 -231 l-74 -66 -68 3 c-37 2 -68 4 -68 5 0 23 -36 162 -52
200 -18 44 -20 58 -11 87 11 34 10 35 -21 45 -17 5 -73 17 -125 27 -103 20
-105 18 44 60 134 37 397 135 520 193 122 58 171 95 336 251 l129 121 117 30
c169 43 263 58 293 47 44 -17 146 -13 174 6 36 23 33 40 -4 21 -17 -9 -55 -15
-91 -15 l-62 0 41 30 c48 35 72 76 71 122 -1 34 -3 32 -13 -14 -14 -61 -79
-111 -161 -122 -16 -2 -54 -9 -84 -15 -29 -6 -55 -11 -57 -11 -8 0 10 68 28
109 31 73 93 145 217 250 64 54 128 114 142 132 49 66 51 78 3 28z m-2124
-1157 c41 -35 88 -75 105 -89 38 -33 65 -42 90 -33 17 7 16 9 -13 16 -45 9
-30 20 49 33 93 16 129 14 222 -10 45 -12 100 -21 123 -22 l40 0 -10 -37 c-8
-30 -5 -49 12 -96 22 -62 52 -176 52 -199 0 -9 -31 5 -86 37 -91 53 -123 61
-52 12 36 -25 39 -29 20 -32 -37 -6 -134 25 -241 77 -114 54 -114 55 4 65 55
5 62 3 87 -21 21 -20 28 -23 28 -11 0 16 -165 178 -182 178 -15 0 21 -46 63
-79 22 -18 39 -35 37 -37 -8 -8 -172 -19 -283 -19 l-120 0 -105 54 c-58 29
-107 55 -108 56 -2 2 -1 16 2 32 l7 28 92 3 c88 2 95 1 141 -28 27 -17 51 -29
54 -26 3 4 3 7 1 9 -79 63 -77 62 -181 60 -90 -3 -99 -1 -96 15 4 22 59 41
121 41 63 1 60 17 -5 28 -70 12 -114 -1 -165 -48 -57 -52 -91 -54 -42 -1 20
20 49 54 64 75 l29 39 86 -4 85 -3 75 -63z"/>
<path d="M2436 7662 c-10 -40 1 -106 24 -152 30 -58 80 -97 182 -141 106 -45
164 -94 175 -149 7 -37 23 -40 23 -5 0 58 -59 125 -140 159 -119 50 -147 65
-176 89 -44 37 -68 91 -74 167 -5 59 -6 62 -14 32z"/>
<path d="M6601 7598 c-2 -94 -34 -252 -73 -351 -33 -87 -106 -190 -155 -222
-18 -11 -47 -29 -65 -40 -18 -11 -34 -28 -36 -39 -3 -16 -2 -16 17 3 12 12 45
32 74 45 91 40 181 180 227 352 24 89 40 324 23 324 -6 0 -11 -30 -12 -72z"/>
<path d="M6380 6930 c-7 -198 -18 -310 -30 -310 -5 0 -26 20 -48 45 -27 31
-44 62 -52 98 -15 62 -43 112 -76 134 -38 25 -38 9 0 -29 19 -19 38 -48 41
-64 23 -98 27 -106 118 -202 76 -80 97 -109 120 -167 30 -78 32 -92 16 -97 -6
-2 6 -21 26 -43 20 -22 42 -52 47 -67 5 -16 13 -26 18 -23 14 9 -2 52 -30 83
-19 21 -27 38 -23 52 8 29 -55 174 -95 221 -32 37 -34 44 -28 87 13 92 17 248
8 297 l-10 50 -2 -65z"/>
<path d="M3660 6833 c0 -5 11 -44 25 -88 14 -44 25 -88 25 -98 0 -54 -233 -61
-335 -10 -16 9 -42 27 -57 41 -16 14 -28 21 -28 15 0 -22 72 -73 126 -89 65
-19 224 -22 268 -5 16 7 30 10 32 9 1 -2 5 -37 9 -78 7 -88 14 -128 27 -154
10 -18 18 -97 18 -165 0 -19 7 -42 16 -52 20 -22 12 -49 -14 -49 -11 0 -38
-21 -62 -46 -41 -45 -79 -117 -140 -266 -17 -42 -70 -141 -117 -220 -122 -203
-224 -418 -358 -758 -64 -162 -143 -351 -175 -420 -41 -87 -73 -176 -105 -295
-71 -260 -131 -452 -207 -654 -80 -214 -88 -243 -128 -502 -54 -343 -80 -471
-127 -614 -63 -195 -142 -395 -208 -526 -56 -113 -62 -129 -47 -129 20 0 144
285 245 565 62 170 105 349 133 550 4 28 11 61 16 74 5 13 18 87 29 165 26
181 36 218 115 433 68 184 149 448 209 679 20 77 50 165 73 211 55 109 127
277 233 541 106 264 217 499 316 664 39 64 83 148 98 185 15 37 52 118 81 180
61 128 98 163 168 163 37 0 38 1 23 18 -10 10 -17 22 -17 27 0 5 -7 16 -16 26
-10 11 -17 45 -20 100 -6 90 -7 101 -23 169 -5 25 -15 85 -21 134 -10 79 -64
276 -75 276 -3 0 -5 -3 -5 -7z"/>
<path d="M4260 6720 c-29 -24 -44 -29 -90 -30 -30 0 -75 -5 -99 -11 -43 -10
-45 -9 -73 26 -48 58 -69 41 -67 -55 1 -42 2 -41 11 19 l10 65 28 -34 c21 -26
26 -38 18 -47 -13 -16 -9 -16 30 -2 28 10 34 8 54 -15 18 -21 33 -26 70 -28
51 -1 78 14 78 43 0 11 5 19 10 19 6 0 9 5 8 11 -2 6 10 21 25 32 28 22 29 22
43 2 9 -11 18 -32 21 -47 3 -16 9 -28 14 -28 13 0 11 21 -6 54 -8 15 -15 35
-15 42 0 23 -34 16 -70 -16z"/>
<path d="M4519 6100 c-13 -20 -26 -21 -263 -26 -227 -4 -323 2 -384 23 -13 4
-14 3 -6 -6 29 -32 228 -49 459 -38 44 2 98 1 120 -2 l40 -6 -40 -30 c-21 -16
-59 -49 -83 -72 -37 -36 -42 -45 -32 -58 7 -8 17 -15 22 -15 6 0 36 -16 68
-36 32 -20 67 -34 77 -32 12 2 -7 17 -58 46 -42 23 -82 42 -88 42 -23 0 -10
20 37 57 72 58 138 127 144 151 8 27 4 28 -13 2z"/>
<path d="M4626 4498 c-115 -455 -276 -982 -437 -1430 -176 -487 -190 -544
-185 -728 3 -115 18 -176 61 -259 27 -54 29 -27 2 41 -63 157 -62 325 2 538
16 52 72 214 124 360 111 308 200 586 291 905 77 269 168 623 164 636 -2 6
-12 -23 -22 -63z"/>
<path d="M6886 4320 c-3 -8 -19 -55 -36 -105 -85 -246 -253 -528 -444 -745
-36 -40 -33 -39 18 10 118 113 263 326 361 533 58 123 119 291 112 310 -3 8
-7 7 -11 -3z"/>
<path d="M5085 3425 c2 -117 10 -244 20 -305 20 -133 75 -345 122 -469 38
-102 141 -316 149 -309 2 3 -23 61 -55 130 -102 215 -180 477 -212 708 -6 47
-15 166 -19 265 l-8 180 3 -200z"/>
<path d="M5241 3427 c-2 -38 41 -226 79 -340 44 -132 150 -358 260 -552 230
-409 268 -485 346 -681 39 -101 82 -249 100 -346 11 -64 21 -42 11 25 -13 88
-69 266 -122 391 -48 112 -151 310 -298 571 -119 212 -236 450 -279 571 -31
87 -48 151 -86 334 -5 25 -10 37 -11 27z"/>
<path d="M4425 2583 c-14 -56 -14 -248 0 -334 29 -171 99 -347 190 -474 48
-67 156 -180 189 -197 11 -6 -11 23 -50 63 -168 175 -264 358 -309 584 -14 71
-17 121 -12 238 2 81 3 147 2 147 -2 0 -6 -12 -10 -27z"/>
<path d="M7780 1890 c0 -17 111 -121 172 -160 32 -21 104 -62 158 -90 104 -53
120 -69 120 -120 0 -25 -8 -35 -46 -60 -98 -61 -265 -75 -472 -38 -133 24
-466 95 -509 109 l-33 11 0 69 c0 60 5 79 35 139 19 39 32 70 28 70 -11 -1
-60 -79 -76 -121 -17 -41 -15 -142 2 -163 20 -24 85 -44 266 -82 349 -72 378
-77 500 -77 108 0 181 15 257 55 61 32 81 64 72 115 -8 43 -40 71 -139 120
-123 62 -210 120 -273 181 -55 54 -62 59 -62 42z"/>
<path d="M7210 1607 c0 -3 26 -11 58 -17 31 -6 140 -31 242 -55 102 -24 219
-48 260 -52 149 -17 285 -4 378 37 69 31 44 34 -43 5 -153 -52 -287 -45 -607
29 -198 46 -288 62 -288 53z"/>
<path d="M3530 1010 c-19 -4 -69 -5 -111 -2 -50 3 -96 -1 -140 -11 -35 -9
-104 -18 -154 -19 -53 -2 -89 -7 -88 -13 5 -18 134 -17 217 2 52 11 110 17
161 15 85 -3 227 16 219 30 -6 9 -53 9 -104 -2z"/>
<path d="M3653 1003 c14 -22 105 -37 222 -38 147 0 319 11 362 24 25 7 49 5
96 -8 71 -21 261 -29 272 -12 8 15 -24 20 -150 25 -60 3 -132 8 -158 11 -27 4
-68 2 -93 -4 -105 -27 -467 -22 -541 6 -10 4 -14 2 -10 -4z"/>
</g>
</svg>
